<svg width="40" height="40" viewBox="0 0 42 42" fill="none" xmlns="http://www.w3.org/2000/svg">
<path d="M33 5.2H11C7.79675 5.2 5.2 7.79675 5.2 11V33C5.2 36.2033 7.79675 38.8 11 38.8H33C36.2033 38.8 38.8 36.2033 38.8 33V11C38.8 7.79675 36.2033 5.2 33 5.2ZM2.3 11C2.3 6.19512 6.19512 2.3 11 2.3H33C37.8049 2.3 41.7 6.19512 41.7 11V33C41.7 37.8049 37.8049 41.7 33 41.7H11C6.19512 41.7 2.3 37.8049 2.3 33V11Z" fill="#F5DEB3" stroke="black" stroke-width="0.6" stroke-linecap="round"/>
<path fill-rule="evenodd" clip-rule="evenodd" d="M33.9596 9.48538C34.6581 10.1534 34.6827 11.2612 34.0146 11.9596L12.0146 34.9596C11.3466 35.6581 10.2388 35.6827 9.54036 35.0146C8.84193 34.3466 8.81732 33.2388 9.48538 32.5404L31.4854 9.54036C32.1534 8.84193 33.2612 8.81731 33.9596 9.48538Z" fill="#F5DEB3"/>
<path fill-rule="evenodd" clip-rule="evenodd" d="M9.54036 9.48538C10.2388 8.81731 11.3466 8.84193 12.0146 9.54036L34.0146 32.5404C34.6827 33.2388 34.6581 34.3466 33.9596 35.0146C33.2612 35.6827 32.1534 35.6581 31.4854 34.9596L9.48538 11.9596C8.81731 11.2612 8.84193 10.1534 9.54036 9.48538Z" fill="#F5DEB3"/>
<path fill-rule="evenodd" clip-rule="evenodd" d="M33.9596 9.48538C34.6581 10.1534 34.6827 11.2612 34.0146 11.9596L12.0146 34.9596C11.3466 35.6581 10.2388 35.6827 9.54036 35.0146C8.84193 34.3466 8.81732 33.2388 9.48538 32.5404L31.4854 9.54036C32.1534 8.84193 33.2612 8.81731 33.9596 9.48538Z" stroke="black" stroke-width="0.6" stroke-linecap="round"/>
<path fill-rule="evenodd" clip-rule="evenodd" d="M9.54036 9.48538C10.2388 8.81731 11.3466 8.84193 12.0146 9.54036L34.0146 32.5404C34.6827 33.2388 34.6581 34.3466 33.9596 35.0146C33.2612 35.6827 32.1534 35.6581 31.4854 34.9596L9.48538 11.9596C8.81731 11.2612 8.84193 10.1534 9.54036 9.48538Z" stroke="black" stroke-width="0.6" stroke-linecap="round"/>
<path fill-rule="evenodd" clip-rule="evenodd" d="M31 3.5H9C5.96243 3.5 3.5 5.96243 3.5 9V31C3.5 34.0376 5.96243 36.5 9 36.5H31C34.0376 36.5 36.5 34.0376 36.5 31V9C36.5 5.96243 34.0376 3.5 31 3.5ZM9 0C4.02944 0 0 4.02944 0 9V31C0 35.9706 4.02944 40 9 40H31C35.9706 40 40 35.9706 40 31V9C40 4.02944 35.9706 0 31 0H9Z" fill="black"/>
<path fill-rule="evenodd" clip-rule="evenodd" d="M30.9596 7.48538C31.6581 8.15344 31.6827 9.26121 31.0146 9.95964L9.01463 32.9596C8.34656 33.6581 7.2388 33.6827 6.54036 33.0146C5.84193 32.3466 5.81732 31.2388 6.48538 30.5404L28.4854 7.54036C29.1534 6.84193 30.2612 6.81731 30.9596 7.48538Z" fill="black"/>
<path fill-rule="evenodd" clip-rule="evenodd" d="M6.54036 7.48538C7.2388 6.81731 8.34656 6.84193 9.01463 7.54036L31.0146 30.5404C31.6827 31.2388 31.6581 32.3466 30.9596 33.0146C30.2612 33.6827 29.1534 33.6581 28.4854 32.9596L6.48538 9.95964C5.81731 9.26121 5.84193 8.15344 6.54036 7.48538Z" fill="black"/>
</svg>
