<svg width="40" height="40" viewBox="0 0 42 42" fill="none" xmlns="http://www.w3.org/2000/svg">
<path d="M33 5.2H11C7.79675 5.2 5.2 7.79675 5.2 11V33C5.2 36.2033 7.79675 38.8 11 38.8H33C36.2033 38.8 38.8 36.2033 38.8 33V11C38.8 7.79675 36.2033 5.2 33 5.2ZM2.3 11C2.3 6.19512 6.19512 2.3 11 2.3H33C37.8049 2.3 41.7 6.19512 41.7 11V33C41.7 37.8049 37.8049 41.7 33 41.7H11C6.19512 41.7 2.3 37.8049 2.3 33V11Z" fill="#F5DEB3" stroke="black" stroke-width="0.6" stroke-linecap="round"/>
<path fill-rule="evenodd" clip-rule="evenodd" d="M7.25 12C7.25 11.0335 8.0335 10.25 9 10.25H35C35.9665 10.25 36.75 11.0335 36.75 12C36.75 12.9665 35.9665 13.75 35 13.75H9C8.0335 13.75 7.25 12.9665 7.25 12Z" fill="#F5DEB3" stroke="black" stroke-width="0.6" stroke-linecap="round"/>
<path fill-rule="evenodd" clip-rule="evenodd" d="M7.25 32C7.25 31.0335 8.0335 30.25 9 30.25H35C35.9665 30.25 36.75 31.0335 36.75 32C36.75 32.9665 35.9665 33.75 35 33.75H9C8.0335 33.75 7.25 32.9665 7.25 32Z" fill="#F5DEB3" stroke="black" stroke-width="0.6" stroke-linecap="round"/>
<path fill-rule="evenodd" clip-rule="evenodd" d="M7.25 22C7.25 21.0335 8.0335 20.25 9 20.25H35C35.9665 20.25 36.75 21.0335 36.75 22C36.75 22.9665 35.9665 23.75 35 23.75H9C8.0335 23.75 7.25 22.9665 7.25 22Z" fill="#F5DEB3" stroke="black" stroke-width="0.6" stroke-linecap="round"/>
<path fill-rule="evenodd" clip-rule="evenodd" d="M31 3.5H9C5.96243 3.5 3.5 5.96243 3.5 9V31C3.5 34.0376 5.96243 36.5 9 36.5H31C34.0376 36.5 36.5 34.0376 36.5 31V9C36.5 5.96243 34.0376 3.5 31 3.5ZM9 0C4.02944 0 0 4.02944 0 9V31C0 35.9706 4.02944 40 9 40H31C35.9706 40 40 35.9706 40 31V9C40 4.02944 35.9706 0 31 0H9Z" fill="black"/>
<path fill-rule="evenodd" clip-rule="evenodd" d="M5.25 10C5.25 9.0335 6.0335 8.25 7 8.25H33C33.9665 8.25 34.75 9.0335 34.75 10C34.75 10.9665 33.9665 11.75 33 11.75H7C6.0335 11.75 5.25 10.9665 5.25 10Z" fill="black"/>
<path fill-rule="evenodd" clip-rule="evenodd" d="M5.25 30C5.25 29.0335 6.0335 28.25 7 28.25H33C33.9665 28.25 34.75 29.0335 34.75 30C34.75 30.9665 33.9665 31.75 33 31.75H7C6.0335 31.75 5.25 30.9665 5.25 30Z" fill="black"/>
<path fill-rule="evenodd" clip-rule="evenodd" d="M5.25 20C5.25 19.0335 6.0335 18.25 7 18.25H33C33.9665 18.25 34.75 19.0335 34.75 20C34.75 20.9665 33.9665 21.75 33 21.75H7C6.0335 21.75 5.25 20.9665 5.25 20Z" fill="black"/>
</svg>
