<svg width="417" height="417" viewBox="0 0 417 417" fill="none" xmlns="http://www.w3.org/2000/svg">
<path d="M0 56C0 25.072 25.0721 0 56 0H361C391.928 0 417 25.0721 417 56V361C417 391.928 391.928 417 361 417H56C25.072 417 0 391.928 0 361V56Z" fill="#393939"/>
<path fill-rule="evenodd" clip-rule="evenodd" d="M352.5 48H65.5C58.0442 48 52 54.0442 52 61.5C52 68.9558 58.0442 75 65.5 75H352.5C359.956 75 366 68.9558 366 61.5C366 54.0442 359.956 48 352.5 48ZM65.5 39C53.0736 39 43 49.0736 43 61.5C43 73.9264 53.0736 84 65.5 84H352.5C364.926 84 375 73.9264 375 61.5C375 49.0736 364.926 39 352.5 39H65.5Z" fill="white"/>
<path fill-rule="evenodd" clip-rule="evenodd" d="M352.5 168H65.5C58.0442 168 52 174.044 52 181.5C52 188.956 58.0442 195 65.5 195H352.5C359.956 195 366 188.956 366 181.5C366 174.044 359.956 168 352.5 168ZM65.5 159C53.0736 159 43 169.074 43 181.5C43 193.926 53.0736 204 65.5 204H352.5C364.926 204 375 193.926 375 181.5C375 169.074 364.926 159 352.5 159H65.5Z" fill="white"/>
<path fill-rule="evenodd" clip-rule="evenodd" d="M352.5 288H65.5C58.0442 288 52 294.044 52 301.5C52 308.956 58.0442 315 65.5 315H352.5C359.956 315 366 308.956 366 301.5C366 294.044 359.956 288 352.5 288ZM65.5 279C53.0736 279 43 289.074 43 301.5C43 313.926 53.0736 324 65.5 324H352.5C364.926 324 375 313.926 375 301.5C375 289.074 364.926 279 352.5 279H65.5Z" fill="white"/>
<path d="M43 121.5C43 109.074 53.0736 99 65.5 99H260.5C272.926 99 283 109.074 283 121.5V121.5C283 133.926 272.926 144 260.5 144H65.5C53.0736 144 43 133.926 43 121.5V121.5Z" fill="white"/>
<path fill-rule="evenodd" clip-rule="evenodd" d="M260.5 108H65.5C58.0442 108 52 114.044 52 121.5C52 128.956 58.0442 135 65.5 135H260.5C267.956 135 274 128.956 274 121.5C274 114.044 267.956 108 260.5 108ZM65.5 99C53.0736 99 43 109.074 43 121.5C43 133.926 53.0736 144 65.5 144H260.5C272.926 144 283 133.926 283 121.5C283 109.074 272.926 99 260.5 99H65.5Z" fill="white"/>
<path d="M135 241.5C135 229.074 145.074 219 157.5 219H352.5C364.926 219 375 229.074 375 241.5V241.5C375 253.926 364.926 264 352.5 264H157.5C145.074 264 135 253.926 135 241.5V241.5Z" fill="white"/>
<path fill-rule="evenodd" clip-rule="evenodd" d="M352.5 228H157.5C150.044 228 144 234.044 144 241.5C144 248.956 150.044 255 157.5 255H352.5C359.956 255 366 248.956 366 241.5C366 234.044 359.956 228 352.5 228ZM157.5 219C145.074 219 135 229.074 135 241.5C135 253.926 145.074 264 157.5 264H352.5C364.926 264 375 253.926 375 241.5C375 229.074 364.926 219 352.5 219H157.5Z" fill="white"/>
<path d="M43 355.5C43 343.074 53.0736 333 65.5 333H260.5C272.926 333 283 343.074 283 355.5V355.5C283 367.926 272.926 378 260.5 378H65.5C53.0736 378 43 367.926 43 355.5V355.5Z" fill="white"/>
<path fill-rule="evenodd" clip-rule="evenodd" d="M260.5 342H65.5C58.0442 342 52 348.044 52 355.5C52 362.956 58.0442 369 65.5 369H260.5C267.956 369 274 362.956 274 355.5C274 348.044 267.956 342 260.5 342ZM65.5 333C53.0736 333 43 343.074 43 355.5C43 367.926 53.0736 378 65.5 378H260.5C272.926 378 283 367.926 283 355.5C283 343.074 272.926 333 260.5 333H65.5Z" fill="white"/>
<path fill-rule="evenodd" clip-rule="evenodd" d="M85.2847 201.419C144.286 244.415 246.114 279.827 342.451 297.553C343.809 297.802 344.707 299.106 344.457 300.464C344.207 301.822 342.904 302.72 341.546 302.47C244.884 284.684 142.213 249.091 82.34 205.459C52.4704 183.692 32.6914 159.515 30.3466 134.081C28.0855 109.555 42.0841 84.9318 76.1908 61.2408L59.9626 57.864C58.6108 57.5827 57.743 56.2589 58.0243 54.9071C58.3056 53.5554 59.6294 52.6876 60.9812 52.9689L83.0093 57.5525C84.3611 57.8337 85.2289 59.1576 84.9476 60.5093L80.364 82.5375C80.0827 83.8893 78.7589 84.7571 77.4071 84.4758C76.0554 84.1945 75.1876 82.8707 75.4688 81.5189L78.7985 65.5169C45.5707 88.6614 33.3081 111.739 35.3255 133.622C37.465 156.829 55.7171 179.872 85.2847 201.419Z" fill="#FFD42A"/>
<path fill-rule="evenodd" clip-rule="evenodd" d="M376.939 224.899C375.163 172.777 340.346 124.89 277.825 120.494C276.447 120.397 275.409 119.202 275.506 117.825C275.603 116.447 276.798 115.409 278.175 115.506C343.654 120.11 380.087 170.473 381.936 224.729C383.737 277.576 352.798 334.235 284.373 356.657L298.928 364.645C300.138 365.309 300.581 366.829 299.916 368.039C299.252 369.25 297.732 369.692 296.522 369.028L276.797 358.203C275.587 357.539 275.144 356.019 275.808 354.808L286.634 335.084C287.298 333.873 288.818 333.431 290.028 334.095C291.239 334.759 291.681 336.279 291.017 337.489L283.169 351.789C349.159 330.005 378.664 275.514 376.939 224.899Z" fill="#21AD5E"/>
<path d="M59.0319 126.168C58.3439 126.168 57.7519 126.044 57.2559 125.796C56.7679 125.54 56.3919 125.18 56.1279 124.716C55.8719 124.244 55.7439 123.688 55.7439 123.048V117.6H57.3279V123.096C57.3279 123.608 57.4719 124.012 57.7599 124.308C58.0559 124.604 58.4799 124.752 59.0319 124.752C59.5839 124.752 60.0039 124.604 60.2919 124.308C60.5879 124.012 60.7359 123.608 60.7359 123.096V117.6H62.3199V123.048C62.3199 123.688 62.1879 124.244 61.9239 124.716C61.6679 125.18 61.2919 125.54 60.7959 125.796C60.3079 126.044 59.7199 126.168 59.0319 126.168Z" fill="black"/>
<path d="M63.8544 126V117.6H66.8664L68.5344 124.92H68.7504V117.6H70.3104V126H67.2984L65.6304 118.68H65.4144V126H63.8544Z" fill="black"/>
<path d="M71.8935 126V117.6H73.4775V126H71.8935Z" fill="black"/>
<path d="M77.0015 126V119.04H74.5535V117.6H81.0335V119.04H78.5855V126H77.0015Z" fill="black"/>
<path d="M82.1122 126V117.6H87.5122V119.04H83.6962V121.044H87.1762V122.484H83.6962V124.56H87.5842V126H82.1122Z" fill="black"/>
<path d="M88.5167 126V124.608H89.6207V118.992H88.5167V117.6H91.9727C93.1007 117.6 93.9567 117.888 94.5407 118.464C95.1327 119.032 95.4287 119.88 95.4287 121.008V122.592C95.4287 123.72 95.1327 124.572 94.5407 125.148C93.9567 125.716 93.1007 126 91.9727 126H88.5167ZM91.2047 124.56H91.9967C92.6367 124.56 93.1047 124.392 93.4007 124.056C93.6967 123.72 93.8447 123.248 93.8447 122.64V120.96C93.8447 120.344 93.6967 119.872 93.4007 119.544C93.1047 119.208 92.6367 119.04 91.9967 119.04H91.2047V124.56Z" fill="black"/>
<path d="M102.712 126.168C102.064 126.168 101.492 126.052 100.996 125.82C100.5 125.588 100.112 125.256 99.8318 124.824C99.5518 124.392 99.4118 123.872 99.4118 123.264V122.928H100.972V123.264C100.972 123.768 101.128 124.148 101.44 124.404C101.752 124.652 102.176 124.776 102.712 124.776C103.256 124.776 103.66 124.668 103.924 124.452C104.196 124.236 104.332 123.96 104.332 123.624C104.332 123.392 104.264 123.204 104.128 123.06C104 122.916 103.808 122.8 103.552 122.712C103.304 122.616 103 122.528 102.64 122.448L102.364 122.388C101.788 122.26 101.292 122.1 100.876 121.908C100.468 121.708 100.152 121.448 99.9278 121.128C99.7118 120.808 99.6038 120.392 99.6038 119.88C99.6038 119.368 99.7238 118.932 99.9638 118.572C100.212 118.204 100.556 117.924 100.996 117.732C101.444 117.532 101.968 117.432 102.568 117.432C103.168 117.432 103.7 117.536 104.164 117.744C104.636 117.944 105.004 118.248 105.268 118.656C105.54 119.056 105.676 119.56 105.676 120.168V120.528H104.116V120.168C104.116 119.848 104.052 119.592 103.924 119.4C103.804 119.2 103.628 119.056 103.396 118.968C103.164 118.872 102.888 118.824 102.568 118.824C102.088 118.824 101.732 118.916 101.5 119.1C101.276 119.276 101.164 119.52 101.164 119.832C101.164 120.04 101.216 120.216 101.32 120.36C101.432 120.504 101.596 120.624 101.812 120.72C102.028 120.816 102.304 120.9 102.64 120.972L102.916 121.032C103.516 121.16 104.036 121.324 104.476 121.524C104.924 121.724 105.272 121.988 105.52 122.316C105.768 122.644 105.892 123.064 105.892 123.576C105.892 124.088 105.76 124.54 105.496 124.932C105.24 125.316 104.872 125.62 104.392 125.844C103.92 126.06 103.36 126.168 102.712 126.168Z" fill="black"/>
<path d="M108.748 126V119.04H106.3V117.6H112.78V119.04H110.332V126H108.748Z" fill="black"/>
<path d="M112.509 126L114.717 117.6H117.477L119.685 126H118.053L117.597 124.152H114.597L114.141 126H112.509ZM114.969 122.688H117.225L116.205 118.596H115.989L114.969 122.688Z" fill="black"/>
<path d="M121.861 126V119.04H119.413V117.6H125.893V119.04H123.445V126H121.861Z" fill="black"/>
<path d="M126.972 126V117.6H132.372V119.04H128.556V121.044H132.036V122.484H128.556V124.56H132.444V126H126.972Z" fill="black"/>
<path d="M136.532 126.168C135.884 126.168 135.312 126.052 134.816 125.82C134.32 125.588 133.932 125.256 133.652 124.824C133.372 124.392 133.232 123.872 133.232 123.264V122.928H134.792V123.264C134.792 123.768 134.948 124.148 135.26 124.404C135.572 124.652 135.996 124.776 136.532 124.776C137.076 124.776 137.48 124.668 137.744 124.452C138.016 124.236 138.152 123.96 138.152 123.624C138.152 123.392 138.084 123.204 137.948 123.06C137.82 122.916 137.628 122.8 137.372 122.712C137.124 122.616 136.82 122.528 136.46 122.448L136.184 122.388C135.608 122.26 135.112 122.1 134.696 121.908C134.288 121.708 133.972 121.448 133.748 121.128C133.532 120.808 133.424 120.392 133.424 119.88C133.424 119.368 133.544 118.932 133.784 118.572C134.032 118.204 134.376 117.924 134.816 117.732C135.264 117.532 135.788 117.432 136.388 117.432C136.988 117.432 137.52 117.536 137.984 117.744C138.456 117.944 138.824 118.248 139.088 118.656C139.36 119.056 139.496 119.56 139.496 120.168V120.528H137.936V120.168C137.936 119.848 137.872 119.592 137.744 119.4C137.624 119.2 137.448 119.056 137.216 118.968C136.984 118.872 136.708 118.824 136.388 118.824C135.908 118.824 135.552 118.916 135.32 119.1C135.096 119.276 134.984 119.52 134.984 119.832C134.984 120.04 135.036 120.216 135.14 120.36C135.252 120.504 135.416 120.624 135.632 120.72C135.848 120.816 136.124 120.9 136.46 120.972L136.736 121.032C137.336 121.16 137.856 121.324 138.296 121.524C138.744 121.724 139.092 121.988 139.34 122.316C139.588 122.644 139.712 123.064 139.712 123.576C139.712 124.088 139.58 124.54 139.316 124.932C139.06 125.316 138.692 125.62 138.212 125.844C137.74 126.06 137.18 126.168 136.532 126.168Z" fill="black"/>
<path d="M59.0319 360.168C58.3439 360.168 57.7519 360.044 57.2559 359.796C56.7679 359.54 56.3919 359.18 56.1279 358.716C55.8719 358.244 55.7439 357.688 55.7439 357.048V351.6H57.3279V357.096C57.3279 357.608 57.4719 358.012 57.7599 358.308C58.0559 358.604 58.4799 358.752 59.0319 358.752C59.5839 358.752 60.0039 358.604 60.2919 358.308C60.5879 358.012 60.7359 357.608 60.7359 357.096V351.6H62.3199V357.048C62.3199 357.688 62.1879 358.244 61.9239 358.716C61.6679 359.18 61.2919 359.54 60.7959 359.796C60.3079 360.044 59.7199 360.168 59.0319 360.168Z" fill="black"/>
<path d="M63.8544 360V351.6H66.8664L68.5344 358.92H68.7504V351.6H70.3104V360H67.2984L65.6304 352.68H65.4144V360H63.8544Z" fill="black"/>
<path d="M71.8935 360V351.6H73.4775V360H71.8935Z" fill="black"/>
<path d="M77.0015 360V353.04H74.5535V351.6H81.0335V353.04H78.5855V360H77.0015Z" fill="black"/>
<path d="M82.1122 360V351.6H87.5122V353.04H83.6962V355.044H87.1762V356.484H83.6962V358.56H87.5842V360H82.1122Z" fill="black"/>
<path d="M88.5167 360V358.608H89.6207V352.992H88.5167V351.6H91.9727C93.1007 351.6 93.9567 351.888 94.5407 352.464C95.1327 353.032 95.4287 353.88 95.4287 355.008V356.592C95.4287 357.72 95.1327 358.572 94.5407 359.148C93.9567 359.716 93.1007 360 91.9727 360H88.5167ZM91.2047 358.56H91.9967C92.6367 358.56 93.1047 358.392 93.4007 358.056C93.6967 357.72 93.8447 357.248 93.8447 356.64V354.96C93.8447 354.344 93.6967 353.872 93.4007 353.544C93.1047 353.208 92.6367 353.04 91.9967 353.04H91.2047V358.56Z" fill="black"/>
<path d="M99.7958 360V351.6H101.38V354.936H101.596L104.32 351.6H106.348L102.844 355.74L106.468 360H104.38L101.596 356.592H101.38V360H99.7958Z" fill="black"/>
<path d="M107.308 360V351.6H108.892V360H107.308Z" fill="black"/>
<path d="M110.472 360V351.6H113.484L115.152 358.92H115.368V351.6H116.928V360H113.916L112.248 352.68H112.032V360H110.472Z" fill="black"/>
<path d="M121.415 360.168C120.839 360.168 120.315 360.04 119.843 359.784C119.379 359.52 119.007 359.14 118.727 358.644C118.455 358.14 118.319 357.528 118.319 356.808V354.792C118.319 353.712 118.623 352.884 119.231 352.308C119.839 351.724 120.663 351.432 121.703 351.432C122.735 351.432 123.531 351.708 124.091 352.26C124.659 352.804 124.943 353.544 124.943 354.48V354.528H123.383V354.432C123.383 354.136 123.319 353.868 123.191 353.628C123.071 353.388 122.887 353.2 122.639 353.064C122.391 352.92 122.079 352.848 121.703 352.848C121.143 352.848 120.703 353.02 120.383 353.364C120.063 353.708 119.903 354.176 119.903 354.768V356.832C119.903 357.416 120.063 357.888 120.383 358.248C120.703 358.6 121.151 358.776 121.727 358.776C122.303 358.776 122.723 358.624 122.987 358.32C123.251 358.016 123.383 357.632 123.383 357.168V357.048H121.391V355.704H124.943V360H123.479V359.196H123.263C123.207 359.332 123.115 359.476 122.987 359.628C122.867 359.78 122.683 359.908 122.435 360.012C122.187 360.116 121.847 360.168 121.415 360.168Z" fill="black"/>
<path d="M126.216 360V358.608H127.32V352.992H126.216V351.6H129.672C130.8 351.6 131.656 351.888 132.24 352.464C132.832 353.032 133.128 353.88 133.128 355.008V356.592C133.128 357.72 132.832 358.572 132.24 359.148C131.656 359.716 130.8 360 129.672 360H126.216ZM128.904 358.56H129.696C130.336 358.56 130.804 358.392 131.1 358.056C131.396 357.72 131.544 357.248 131.544 356.64V354.96C131.544 354.344 131.396 353.872 131.1 353.544C130.804 353.208 130.336 353.04 129.696 353.04H128.904V358.56Z" fill="black"/>
<path d="M137.712 360.168C136.656 360.168 135.816 359.88 135.192 359.304C134.568 358.72 134.256 357.888 134.256 356.808V354.792C134.256 353.712 134.568 352.884 135.192 352.308C135.816 351.724 136.656 351.432 137.712 351.432C138.768 351.432 139.608 351.724 140.232 352.308C140.856 352.884 141.168 353.712 141.168 354.792V356.808C141.168 357.888 140.856 358.72 140.232 359.304C139.608 359.88 138.768 360.168 137.712 360.168ZM137.712 358.752C138.304 358.752 138.764 358.58 139.092 358.236C139.42 357.892 139.584 357.432 139.584 356.856V354.744C139.584 354.168 139.42 353.708 139.092 353.364C138.764 353.02 138.304 352.848 137.712 352.848C137.128 352.848 136.668 353.02 136.332 353.364C136.004 353.708 135.84 354.168 135.84 354.744V356.856C135.84 357.432 136.004 357.892 136.332 358.236C136.668 358.58 137.128 358.752 137.712 358.752Z" fill="black"/>
<path d="M142.558 360V351.6H145.498L146.95 358.92H147.166L148.618 351.6H151.558V360H150.022V352.764H149.806L148.366 360H145.75L144.31 352.764H144.094V360H142.558Z" fill="black"/>
<path d="M283.792 66.0001V57.6001H287.248C287.776 57.6001 288.24 57.7081 288.64 57.9241C289.048 58.1321 289.364 58.4281 289.588 58.8121C289.82 59.1961 289.936 59.6521 289.936 60.1801V60.3481C289.936 60.8681 289.816 61.3241 289.576 61.7161C289.344 62.1001 289.024 62.4001 288.616 62.6161C288.216 62.8241 287.76 62.9281 287.248 62.9281H285.376V66.0001H283.792ZM285.376 61.4881H287.092C287.468 61.4881 287.772 61.3841 288.004 61.1761C288.236 60.9681 288.352 60.6841 288.352 60.3241V60.2041C288.352 59.8441 288.236 59.5601 288.004 59.3521C287.772 59.1441 287.468 59.0401 287.092 59.0401H285.376V61.4881Z" fill="white"/>
<path d="M291.034 66.0001V57.6001H292.618V61.0681H295.738V57.6001H297.322V66.0001H295.738V62.5081H292.618V66.0001H291.034Z" fill="white"/>
<path d="M298.909 66.0001V57.6001H300.493V66.0001H298.909Z" fill="white"/>
<path d="M302.073 66.0001V57.6001H303.657V64.5601H307.497V66.0001H302.073Z" fill="white"/>
<path d="M308.577 66.0001V57.6001H310.161V66.0001H308.577Z" fill="white"/>
<path d="M311.741 66.0001V57.6001H315.197C315.725 57.6001 316.189 57.7081 316.589 57.9241C316.997 58.1321 317.313 58.4281 317.537 58.8121C317.769 59.1961 317.885 59.6521 317.885 60.1801V60.3481C317.885 60.8681 317.765 61.3241 317.525 61.7161C317.293 62.1001 316.973 62.4001 316.565 62.6161C316.165 62.8241 315.709 62.9281 315.197 62.9281H313.325V66.0001H311.741ZM313.325 61.4881H315.041C315.417 61.4881 315.721 61.3841 315.953 61.1761C316.185 60.9681 316.301 60.6841 316.301 60.3241V60.2041C316.301 59.8441 316.185 59.5601 315.953 59.3521C315.721 59.1441 315.417 59.0401 315.041 59.0401H313.325V61.4881Z" fill="white"/>
<path d="M318.983 66.0001V57.6001H322.439C322.967 57.6001 323.431 57.7081 323.831 57.9241C324.239 58.1321 324.555 58.4281 324.779 58.8121C325.011 59.1961 325.127 59.6521 325.127 60.1801V60.3481C325.127 60.8681 325.007 61.3241 324.767 61.7161C324.535 62.1001 324.215 62.4001 323.807 62.6161C323.407 62.8241 322.951 62.9281 322.439 62.9281H320.567V66.0001H318.983ZM320.567 61.4881H322.283C322.659 61.4881 322.963 61.3841 323.195 61.1761C323.427 60.9681 323.543 60.6841 323.543 60.3241V60.2041C323.543 59.8441 323.427 59.5601 323.195 59.3521C322.963 59.1441 322.659 59.0401 322.283 59.0401H320.567V61.4881Z" fill="white"/>
<path d="M326.226 66.0001V57.6001H327.81V66.0001H326.226Z" fill="white"/>
<path d="M329.39 66.0001V57.6001H332.402L334.07 64.9201H334.286V57.6001H335.846V66.0001H332.834L331.166 58.6801H330.95V66.0001H329.39Z" fill="white"/>
<path d="M337.429 66.0001V57.6001H342.829V59.0401H339.013V61.0441H342.493V62.4841H339.013V64.5601H342.901V66.0001H337.429Z" fill="white"/>
<path d="M346.989 66.1681C346.341 66.1681 345.769 66.0521 345.273 65.8201C344.777 65.5881 344.389 65.2561 344.109 64.8241C343.829 64.3921 343.689 63.8721 343.689 63.2641V62.9281H345.249V63.2641C345.249 63.7681 345.405 64.1481 345.717 64.4041C346.029 64.6521 346.453 64.7761 346.989 64.7761C347.533 64.7761 347.937 64.6681 348.201 64.4521C348.473 64.2361 348.609 63.9601 348.609 63.6241C348.609 63.3921 348.541 63.2041 348.405 63.0601C348.277 62.9161 348.085 62.8001 347.829 62.7121C347.581 62.6161 347.277 62.5281 346.917 62.4481L346.641 62.3881C346.065 62.2601 345.569 62.1001 345.153 61.9081C344.745 61.7081 344.429 61.4481 344.205 61.1281C343.989 60.8081 343.881 60.3921 343.881 59.8801C343.881 59.3681 344.001 58.9321 344.241 58.5721C344.489 58.2041 344.833 57.9241 345.273 57.7321C345.721 57.5321 346.245 57.4321 346.845 57.4321C347.445 57.4321 347.977 57.5361 348.441 57.7441C348.913 57.9441 349.281 58.2481 349.545 58.6561C349.817 59.0561 349.953 59.5601 349.953 60.1681V60.5281H348.393V60.1681C348.393 59.8481 348.329 59.5921 348.201 59.4001C348.081 59.2001 347.905 59.0561 347.673 58.9681C347.441 58.8721 347.165 58.8241 346.845 58.8241C346.365 58.8241 346.009 58.9161 345.777 59.1001C345.553 59.2761 345.441 59.5201 345.441 59.8321C345.441 60.0401 345.493 60.2161 345.597 60.3601C345.709 60.5041 345.873 60.6241 346.089 60.7201C346.305 60.8161 346.581 60.9001 346.917 60.9721L347.193 61.0321C347.793 61.1601 348.313 61.3241 348.753 61.5241C349.201 61.7241 349.549 61.9881 349.797 62.3161C350.045 62.6441 350.169 63.0641 350.169 63.5761C350.169 64.0881 350.037 64.5401 349.773 64.9321C349.517 65.3161 349.149 65.6201 348.669 65.8441C348.197 66.0601 347.637 66.1681 346.989 66.1681Z" fill="white"/>
<path d="M186.792 186V177.6H192.072V179.04H188.376V181.068H191.784V182.508H188.376V186H186.792Z" fill="white"/>
<path d="M193.202 186V177.6H196.85C197.378 177.6 197.838 177.692 198.23 177.876C198.622 178.06 198.926 178.32 199.142 178.656C199.358 178.992 199.466 179.388 199.466 179.844V179.988C199.466 180.492 199.346 180.9 199.106 181.212C198.866 181.524 198.57 181.752 198.218 181.896V182.112C198.538 182.128 198.786 182.24 198.962 182.448C199.138 182.648 199.226 182.916 199.226 183.252V186H197.642V183.48C197.642 183.288 197.59 183.132 197.486 183.012C197.39 182.892 197.226 182.832 196.994 182.832H194.786V186H193.202ZM194.786 181.392H196.682C197.058 181.392 197.35 181.292 197.558 181.092C197.774 180.884 197.882 180.612 197.882 180.276V180.156C197.882 179.82 197.778 179.552 197.57 179.352C197.362 179.144 197.066 179.04 196.682 179.04H194.786V181.392Z" fill="white"/>
<path d="M200.208 186L202.416 177.6H205.176L207.384 186H205.752L205.296 184.152H202.296L201.84 186H200.208ZM202.668 182.688H204.924L203.904 178.596H203.688L202.668 182.688Z" fill="white"/>
<path d="M208.39 186V177.6H211.402L213.07 184.92H213.286V177.6H214.846V186H211.834L210.166 178.68H209.95V186H208.39Z" fill="white"/>
<path d="M219.621 186.168C218.581 186.168 217.757 185.88 217.149 185.304C216.541 184.72 216.237 183.888 216.237 182.808V180.792C216.237 179.712 216.541 178.884 217.149 178.308C217.757 177.724 218.581 177.432 219.621 177.432C220.653 177.432 221.449 177.716 222.009 178.284C222.577 178.844 222.861 179.616 222.861 180.6V180.672H221.301V180.552C221.301 180.056 221.161 179.648 220.881 179.328C220.609 179.008 220.189 178.848 219.621 178.848C219.061 178.848 218.621 179.02 218.301 179.364C217.981 179.708 217.821 180.176 217.821 180.768V182.832C217.821 183.416 217.981 183.884 218.301 184.236C218.621 184.58 219.061 184.752 219.621 184.752C220.189 184.752 220.609 184.592 220.881 184.272C221.161 183.944 221.301 183.536 221.301 183.048V182.832H222.861V183C222.861 183.984 222.577 184.76 222.009 185.328C221.449 185.888 220.653 186.168 219.621 186.168Z" fill="white"/>
<path d="M224.151 186V177.6H229.551V179.04H225.735V181.044H229.215V182.484H225.735V184.56H229.623V186H224.151Z" fill="white"/>
<path d="M64.552 306V304.608H65.656V298.992H64.552V297.6H68.872C69.384 297.6 69.828 297.688 70.204 297.864C70.588 298.032 70.884 298.276 71.092 298.596C71.308 298.908 71.416 299.284 71.416 299.724V299.844C71.416 300.228 71.344 300.544 71.2 300.792C71.056 301.032 70.884 301.22 70.684 301.356C70.492 301.484 70.308 301.576 70.132 301.632V301.848C70.308 301.896 70.5 301.988 70.708 302.124C70.916 302.252 71.092 302.44 71.236 302.688C71.388 302.936 71.464 303.26 71.464 303.66V303.78C71.464 304.244 71.356 304.644 71.14 304.98C70.924 305.308 70.624 305.56 70.24 305.736C69.864 305.912 69.424 306 68.92 306H64.552ZM67.24 304.56H68.728C69.072 304.56 69.348 304.476 69.556 304.308C69.772 304.14 69.88 303.9 69.88 303.588V303.468C69.88 303.156 69.776 302.916 69.568 302.748C69.36 302.58 69.08 302.496 68.728 302.496H67.24V304.56ZM67.24 301.056H68.704C69.032 301.056 69.3 300.972 69.508 300.804C69.724 300.636 69.832 300.404 69.832 300.108V299.988C69.832 299.684 69.728 299.452 69.52 299.292C69.312 299.124 69.04 299.04 68.704 299.04H67.24V301.056Z" fill="white"/>
<path d="M72.7608 306V297.6H76.4088C76.9368 297.6 77.3968 297.692 77.7888 297.876C78.1808 298.06 78.4848 298.32 78.7008 298.656C78.9168 298.992 79.0248 299.388 79.0248 299.844V299.988C79.0248 300.492 78.9048 300.9 78.6648 301.212C78.4248 301.524 78.1288 301.752 77.7768 301.896V302.112C78.0968 302.128 78.3448 302.24 78.5208 302.448C78.6968 302.648 78.7848 302.916 78.7848 303.252V306H77.2008V303.48C77.2008 303.288 77.1488 303.132 77.0448 303.012C76.9488 302.892 76.7848 302.832 76.5528 302.832H74.3448V306H72.7608ZM74.3448 301.392H76.2408C76.6168 301.392 76.9088 301.292 77.1168 301.092C77.3328 300.884 77.4408 300.612 77.4408 300.276V300.156C77.4408 299.82 77.3368 299.552 77.1288 299.352C76.9208 299.144 76.6248 299.04 76.2408 299.04H74.3448V301.392Z" fill="white"/>
<path d="M79.7668 306L81.9748 297.6H84.7348L86.9428 306H85.3108L84.8548 304.152H81.8548L81.3988 306H79.7668ZM82.2268 302.688H84.4828L83.4628 298.596H83.2468L82.2268 302.688Z" fill="white"/>
<path d="M87.7083 306V303.984L91.8603 299.208V299.016H87.8283V297.6H93.5163V299.616L89.3643 304.392V304.584H93.5403V306H87.7083Z" fill="white"/>
<path d="M94.8623 306V297.6H96.4463V306H94.8623Z" fill="white"/>
<path d="M98.0264 306V297.6H99.6104V304.56H103.45V306H98.0264Z" fill="white"/>
<path d="M281.708 246.168C281.06 246.168 280.488 246.052 279.992 245.82C279.496 245.588 279.108 245.256 278.828 244.824C278.548 244.392 278.408 243.872 278.408 243.264V242.928H279.968V243.264C279.968 243.768 280.124 244.148 280.436 244.404C280.748 244.652 281.172 244.776 281.708 244.776C282.252 244.776 282.656 244.668 282.92 244.452C283.192 244.236 283.328 243.96 283.328 243.624C283.328 243.392 283.26 243.204 283.124 243.06C282.996 242.916 282.804 242.8 282.548 242.712C282.3 242.616 281.996 242.528 281.636 242.448L281.36 242.388C280.784 242.26 280.288 242.1 279.872 241.908C279.464 241.708 279.148 241.448 278.924 241.128C278.708 240.808 278.6 240.392 278.6 239.88C278.6 239.368 278.72 238.932 278.96 238.572C279.208 238.204 279.552 237.924 279.992 237.732C280.44 237.532 280.964 237.432 281.564 237.432C282.164 237.432 282.696 237.536 283.16 237.744C283.632 237.944 284 238.248 284.264 238.656C284.536 239.056 284.672 239.56 284.672 240.168V240.528H283.112V240.168C283.112 239.848 283.048 239.592 282.92 239.4C282.8 239.2 282.624 239.056 282.392 238.968C282.16 238.872 281.884 238.824 281.564 238.824C281.084 238.824 280.728 238.916 280.496 239.1C280.272 239.276 280.16 239.52 280.16 239.832C280.16 240.04 280.212 240.216 280.316 240.36C280.428 240.504 280.592 240.624 280.808 240.72C281.024 240.816 281.3 240.9 281.636 240.972L281.912 241.032C282.512 241.16 283.032 241.324 283.472 241.524C283.92 241.724 284.268 241.988 284.516 242.316C284.764 242.644 284.888 243.064 284.888 243.576C284.888 244.088 284.756 244.54 284.492 244.932C284.236 245.316 283.868 245.62 283.388 245.844C282.916 246.06 282.356 246.168 281.708 246.168Z" fill="black"/>
<path d="M289.333 246.168C288.277 246.168 287.437 245.88 286.813 245.304C286.189 244.72 285.877 243.888 285.877 242.808V240.792C285.877 239.712 286.189 238.884 286.813 238.308C287.437 237.724 288.277 237.432 289.333 237.432C290.389 237.432 291.229 237.724 291.853 238.308C292.477 238.884 292.789 239.712 292.789 240.792V242.808C292.789 243.888 292.477 244.72 291.853 245.304C291.229 245.88 290.389 246.168 289.333 246.168ZM289.333 244.752C289.925 244.752 290.385 244.58 290.713 244.236C291.041 243.892 291.205 243.432 291.205 242.856V240.744C291.205 240.168 291.041 239.708 290.713 239.364C290.385 239.02 289.925 238.848 289.333 238.848C288.749 238.848 288.289 239.02 287.953 239.364C287.625 239.708 287.461 240.168 287.461 240.744V242.856C287.461 243.432 287.625 243.892 287.953 244.236C288.289 244.58 288.749 244.752 289.333 244.752Z" fill="black"/>
<path d="M297.419 246.168C296.731 246.168 296.139 246.044 295.643 245.796C295.155 245.54 294.779 245.18 294.515 244.716C294.259 244.244 294.131 243.688 294.131 243.048V237.6H295.715V243.096C295.715 243.608 295.859 244.012 296.147 244.308C296.443 244.604 296.867 244.752 297.419 244.752C297.971 244.752 298.391 244.604 298.679 244.308C298.975 244.012 299.123 243.608 299.123 243.096V237.6H300.707V243.048C300.707 243.688 300.575 244.244 300.311 244.716C300.055 245.18 299.679 245.54 299.183 245.796C298.695 246.044 298.107 246.168 297.419 246.168Z" fill="black"/>
<path d="M304.185 246V239.04H301.737V237.6H308.217V239.04H305.769V246H304.185Z" fill="black"/>
<path d="M309.296 246V237.6H310.88V241.068H314V237.6H315.584V246H314V242.508H310.88V246H309.296Z" fill="black"/>
<path d="M320.218 246V237.6H321.802V240.936H322.018L324.742 237.6H326.77L323.266 241.74L326.89 246H324.802L322.018 242.592H321.802V246H320.218Z" fill="black"/>
<path d="M330.63 246.168C329.574 246.168 328.734 245.88 328.11 245.304C327.486 244.72 327.174 243.888 327.174 242.808V240.792C327.174 239.712 327.486 238.884 328.11 238.308C328.734 237.724 329.574 237.432 330.63 237.432C331.686 237.432 332.526 237.724 333.15 238.308C333.774 238.884 334.086 239.712 334.086 240.792V242.808C334.086 243.888 333.774 244.72 333.15 245.304C332.526 245.88 331.686 246.168 330.63 246.168ZM330.63 244.752C331.222 244.752 331.682 244.58 332.01 244.236C332.338 243.892 332.502 243.432 332.502 242.856V240.744C332.502 240.168 332.338 239.708 332.01 239.364C331.682 239.02 331.222 238.848 330.63 238.848C330.046 238.848 329.586 239.02 329.25 239.364C328.922 239.708 328.758 240.168 328.758 240.744V242.856C328.758 243.432 328.922 243.892 329.25 244.236C329.586 244.58 330.046 244.752 330.63 244.752Z" fill="black"/>
<path d="M335.476 246V237.6H339.124C339.652 237.6 340.112 237.692 340.504 237.876C340.896 238.06 341.2 238.32 341.416 238.656C341.632 238.992 341.74 239.388 341.74 239.844V239.988C341.74 240.492 341.62 240.9 341.38 241.212C341.14 241.524 340.844 241.752 340.492 241.896V242.112C340.812 242.128 341.06 242.24 341.236 242.448C341.412 242.648 341.5 242.916 341.5 243.252V246H339.916V243.48C339.916 243.288 339.864 243.132 339.76 243.012C339.664 242.892 339.5 242.832 339.268 242.832H337.06V246H335.476ZM337.06 241.392H338.956C339.332 241.392 339.624 241.292 339.832 241.092C340.048 240.884 340.156 240.612 340.156 240.276V240.156C340.156 239.82 340.052 239.552 339.844 239.352C339.636 239.144 339.34 239.04 338.956 239.04H337.06V241.392Z" fill="black"/>
<path d="M343.058 246V237.6H348.458V239.04H344.642V241.044H348.122V242.484H344.642V244.56H348.53V246H343.058Z" fill="black"/>
<path d="M349.126 246L351.334 237.6H354.094L356.302 246H354.67L354.214 244.152H351.214L350.758 246H349.126ZM351.586 242.688H353.842L352.822 238.596H352.606L351.586 242.688Z" fill="black"/>
</svg>
