<svg width="417" height="417" viewBox="0 0 417 417" fill="none" xmlns="http://www.w3.org/2000/svg">
<g filter="url(#filter0_i_0_1)">
<rect width="417" height="417" rx="56" fill="#393939"/>
</g>
<rect x="56.5" y="56.5" width="141" height="141" rx="45.5" stroke="#F5DEB3" stroke-width="9"/>
<rect x="220.5" y="220.5" width="141" height="141" stroke="#31A8CD" stroke-width="9"/>
<rect x="220.5" y="56.5" width="141" height="141" rx="70.5" stroke="#3ED47A" stroke-width="9"/>
<path d="M292.185 163.212C284.653 163.212 278.175 161.764 272.749 158.867C267.377 156.023 263.242 151.967 260.345 146.7C257.448 141.433 256 135.191 256 127.975V126.079C256 118.863 257.422 112.648 260.266 107.433C263.111 102.166 267.166 98.1106 272.433 95.2664C277.701 92.4221 283.968 91 291.237 91H292.975C299.612 91 305.406 92.3958 310.357 95.1874C315.308 97.9263 319.153 101.771 321.892 106.722C324.631 111.673 326 117.441 326 124.025V129.871C326 135.402 324.868 139.721 322.603 142.828C320.338 145.883 316.941 147.411 312.411 147.411H307.828C305.353 147.411 303.457 146.91 302.14 145.91C300.823 144.909 300.165 143.566 300.165 141.88V141.722H298.743C298.321 142.828 297.689 143.856 296.847 144.804C296.056 145.752 295.029 146.515 293.765 147.095C292.501 147.622 290.895 147.885 288.946 147.885C285.628 147.885 282.757 147.016 280.334 145.278C277.964 143.487 276.12 141.117 274.804 138.167C273.54 135.217 272.907 131.926 272.907 128.291V127.027C272.907 123.34 273.513 120.022 274.725 117.072C275.989 114.123 277.753 111.779 280.018 110.041C282.336 108.302 285.048 107.433 288.156 107.433C290.105 107.433 291.711 107.67 292.975 108.144C294.239 108.619 295.266 109.251 296.056 110.041C296.847 110.831 297.505 111.7 298.032 112.648H299.454V107.907H309.093V135.876C309.093 136.771 309.277 137.456 309.646 137.93C310.014 138.351 310.646 138.562 311.542 138.562H311.858C313.385 138.562 314.491 137.851 315.176 136.429C315.861 134.954 316.203 132.768 316.203 129.871V124.183C316.203 119.179 315.334 114.886 313.596 111.305C311.91 107.67 309.33 104.879 305.853 102.93C302.377 100.981 297.979 100.007 292.659 100.007H291.553C286.233 100.007 281.651 101.008 277.806 103.009C273.961 105.011 270.985 107.986 268.878 111.937C266.824 115.834 265.797 120.654 265.797 126.395V127.659C265.797 133.4 266.85 138.246 268.957 142.196C271.117 146.147 274.198 149.123 278.201 151.124C282.257 153.178 287.129 154.205 292.817 154.205H309.251V163.212H292.185ZM291 139.352C293.581 139.352 295.635 138.351 297.163 136.35C298.69 134.348 299.454 131.609 299.454 128.133V127.185C299.454 123.709 298.69 120.97 297.163 118.968C295.635 116.967 293.581 115.966 291 115.966C288.419 115.966 286.391 116.967 284.916 118.968C283.442 120.97 282.704 123.709 282.704 127.185V128.133C282.704 131.609 283.442 134.348 284.916 136.35C286.391 138.351 288.419 139.352 291 139.352Z" fill="#3ED57A"/>
<path d="M265.443 326.848V255H293.566C298.493 255 302.804 255.992 306.499 257.977C310.262 259.892 313.17 262.63 315.223 266.188C317.344 269.677 318.405 273.851 318.405 278.71V280.147C318.405 284.936 317.31 289.11 315.12 292.669C312.931 296.227 309.954 298.998 306.191 300.982C302.496 302.898 298.287 303.856 293.566 303.856H278.991V326.848H265.443ZM278.991 291.54H292.232C295.995 291.54 299.04 290.513 301.367 288.46C303.693 286.339 304.856 283.5 304.856 279.941V278.915C304.856 275.288 303.693 272.449 301.367 270.396C299.109 268.343 296.064 267.317 292.232 267.317H278.991V291.54ZM256 288.255V281.07H326V288.255H256ZM256 277.786V270.601H326V277.786H256Z" fill="#31A8CD"/>
<path d="M102.623 162.549V109.163H92V95H162V109.163H151.377V144.3C151.377 147.023 152.649 148.385 155.191 148.385H162V162.549H149.198C144.75 162.549 141.118 161.187 138.304 158.463C135.58 155.649 134.218 151.926 134.218 147.296V109.163H119.782V162.549H102.623Z" fill="#F5DEB3"/>
<path d="M122.196 357.13L123.953 361.273L122.196 357.13L114.243 360.501C112.965 361.044 111.483 360.729 110.535 359.713L104.642 353.398C102.366 350.96 99.199 349.55 95.8648 349.491L87.2281 349.336C85.8393 349.311 84.614 348.421 84.1612 347.108L81.3454 338.942C80.2584 335.789 77.9385 333.213 74.9168 331.802L67.0897 328.148C65.831 327.56 65.0737 326.249 65.1942 324.865L65.9434 316.259C66.2326 312.937 65.1612 309.64 62.9745 307.122L57.3102 300.601C56.3994 299.552 56.2411 298.046 56.914 296.83L61.0985 289.274C62.714 286.356 63.0764 282.908 62.1028 279.719L59.5808 271.457C59.1753 270.129 59.6433 268.688 60.7523 267.852L67.6487 262.65C70.3111 260.642 72.0446 257.64 72.4524 254.33L73.5088 245.757C73.6787 244.378 74.6921 243.253 76.0454 242.94L84.4612 240.993C87.7101 240.241 90.515 238.204 92.2338 235.346L96.6859 227.944C97.4018 226.753 98.7854 226.137 100.149 226.402L108.629 228.046C111.903 228.681 115.294 227.96 118.027 226.049L125.105 221.097C126.243 220.301 127.757 220.301 128.895 221.097L135.973 226.049C138.706 227.96 142.097 228.681 145.371 228.046L153.851 226.402C155.215 226.137 156.598 226.753 157.314 227.944L161.766 235.346C163.485 238.204 166.29 240.241 169.539 240.993L177.955 242.94C179.308 243.253 180.321 244.378 180.491 245.757L181.548 254.33C181.955 257.64 183.689 260.642 186.351 262.65L193.248 267.852C194.357 268.688 194.825 270.129 194.419 271.457L191.897 279.719C190.924 282.908 191.286 286.356 192.901 289.274L197.086 296.83C197.759 298.046 197.601 299.552 196.69 300.601L191.025 307.122C188.839 309.64 187.767 312.937 188.057 316.259L188.806 324.865C188.926 326.249 188.169 327.56 186.91 328.148L179.083 331.802C176.062 333.213 173.742 335.789 172.655 338.942L169.839 347.108C169.386 348.421 168.161 349.311 166.772 349.336L158.135 349.491C154.801 349.55 151.634 350.96 149.358 353.398L143.465 359.713C142.517 360.729 141.035 361.044 139.757 360.501L131.804 357.13C128.733 355.828 125.266 355.828 122.196 357.13Z" stroke="#E3C93F" stroke-width="9"/>
<path d="M111.865 331.575C109.422 331.575 107.414 330.788 105.84 329.214C104.32 327.695 103.561 325.713 103.561 323.271V298.033C103.561 296.459 102.828 295.672 101.362 295.672H92V285.903H101.362C102.828 285.903 103.561 285.116 103.561 283.542V258.304C103.561 255.862 104.32 253.881 105.84 252.361C107.414 250.787 109.422 250 111.865 250H125.705V258.793H115.691C114.226 258.793 113.493 259.607 113.493 261.235V283.542C113.493 285.387 112.896 286.934 111.702 288.182C110.562 289.431 109.042 290.055 107.143 290.055H105.84V291.52H107.143C109.042 291.52 110.562 292.144 111.702 293.393C112.896 294.641 113.493 296.188 113.493 298.033V320.34C113.493 321.969 114.226 322.783 115.691 322.783H125.705V331.575H111.865Z" fill="#E3C93F"/>
<path d="M128.295 331.575V322.783H138.309C139.774 322.783 140.507 321.969 140.507 320.34V298.033C140.507 296.188 141.077 294.641 142.217 293.393C143.411 292.144 144.958 291.52 146.857 291.52H148.16V290.055H146.857C144.958 290.055 143.411 289.431 142.217 288.182C141.077 286.934 140.507 285.387 140.507 283.542V261.235C140.507 259.607 139.774 258.793 138.309 258.793H128.295V250H142.135C144.578 250 146.559 250.787 148.078 252.361C149.652 253.881 150.439 255.862 150.439 258.304V283.542C150.439 285.116 151.172 285.903 152.638 285.903H162V295.672H152.638C151.172 295.672 150.439 296.459 150.439 298.033V323.271C150.439 325.713 149.652 327.695 148.078 329.214C146.559 330.788 144.578 331.575 142.135 331.575H128.295Z" fill="#E3C93F"/>
<defs>
<filter id="filter0_i_0_1" x="0" y="0" width="457" height="457" filterUnits="userSpaceOnUse" color-interpolation-filters="sRGB">
<feFlood flood-opacity="0" result="BackgroundImageFix"/>
<feBlend mode="normal" in="SourceGraphic" in2="BackgroundImageFix" result="shape"/>
<feColorMatrix in="SourceAlpha" type="matrix" values="0 0 0 0 0 0 0 0 0 0 0 0 0 0 0 0 0 0 127 0" result="hardAlpha"/>
<feOffset dx="40" dy="40"/>
<feGaussianBlur stdDeviation="45"/>
<feComposite in2="hardAlpha" operator="arithmetic" k2="-1" k3="1"/>
<feColorMatrix type="matrix" values="0 0 0 0 1 0 0 0 0 1 0 0 0 0 1 0 0 0 0.25 0"/>
<feBlend mode="normal" in2="shape" result="effect1_innerShadow_0_1"/>
</filter>
</defs>
</svg>
