<?xml version="1.0" encoding="UTF-8" standalone="no"?>
<svg width="29" height="26" viewBox="0 0 29 26" fill="none" xmlns="http://www.w3.org/2000/svg">
<path d="M11.5455 1H7L12 13H17L11.5455 1Z" fill="#2706F3" stroke="black" stroke-linecap="round" stroke-linejoin="round"/>
<path d="M22.5455 1H18L23 13H28L22.5455 1Z" fill="#2706F3" stroke="black" stroke-linecap="round" stroke-linejoin="round"/>
<path d="M17.4545 1L22 1L17 13H12L17.4545 1Z" fill="#00E979" stroke="black" stroke-linecap="round" stroke-linejoin="round"/>
<path d="M6.45455 1L11 1L6 13H1L6.45455 1Z" fill="#00E979" stroke="black" stroke-linecap="round" stroke-linejoin="round"/>
<path d="M17.4545 25H22L17 13H12L17.4545 25Z" fill="#2706F3" stroke="black" stroke-linecap="round" stroke-linejoin="round"/>
<path d="M6.45455 25H11L6 13H1L6.45455 25Z" fill="#2706F3" stroke="black" stroke-linecap="round" stroke-linejoin="round"/>
<path d="M11.5455 25H7L12 13H17L11.5455 25Z" fill="#00E979" stroke="black" stroke-linecap="round" stroke-linejoin="round"/>
<path d="M22.5455 25H18L23 13H28L22.5455 25Z" fill="#00E979" stroke="black" stroke-linecap="round" stroke-linejoin="round"/>
</svg>
